
<svg xmlns="http://www.w3.org/2000/svg" width="2400" height="1320" viewBox="0 0 2400 1320">
  <defs>
    <filter id="shadowCard" x="-20%" y="-20%" width="140%" height="160%">
      <feDropShadow dx="0" dy="18" stdDeviation="24" flood-color="#16304A" flood-opacity="0.08"/>
    </filter>
  </defs>
  <rect x="0" y="0" width="2400" height="1320" rx="0" fill="#F6F8FB" stroke="none" stroke-width="1" />
  <text x="120" y="120" font-family="Inter, Roboto, Arial, sans-serif" font-size="64" font-weight="900" fill="#122033" text-anchor="start">Sketch2FloorPlan</text>
  <text x="120" y="166" font-family="Inter, Roboto, Arial, sans-serif" font-size="24" font-weight="600" fill="#6B7A8B" text-anchor="start">Mobile UI showcase for an AI-powered floor plan conversion app</text>
  <text x="120" y="206" font-family="Inter, Roboto, Arial, sans-serif" font-size="20" font-weight="500" fill="#8D9AAA" text-anchor="start">Minimal engineering-style interface • white background • blue and gray accents • presentation-ready</text>

  <g filter="url(#shadowCard)">
    
    <g>
      <rect x="132" y="266" width="390" height="844" rx="44" fill="#B7C6D8" opacity="0.08" />
      <rect x="120" y="240" width="390" height="844" rx="44" fill="#FFFFFF" stroke="#DCE5EE" stroke-width="2" />
      <rect x="243" y="258" width="144" height="24" rx="12" fill="#122033" opacity="0.96" />
      <g>
    
    <text x="148" y="304" font-family="Inter, Roboto, Arial, sans-serif" font-size="27" font-weight="800" fill="#122033" text-anchor="start">Sketch2FloorPlan</text>
    
  
    <text x="148" y="338" font-family="Inter, Roboto, Arial, sans-serif" font-size="16" font-weight="600" fill="#6B7A8B" text-anchor="start">AI floor plan digitizer</text>
    <rect x="148" y="378" width="334" height="212" rx="28" fill="#FFFFFF" stroke="#DCE5EE" stroke-width="1" />
    <rect x="166" y="398" width="298" height="132" rx="24" fill="#F4F7FA" stroke="#DCE5EE" stroke-width="1" />
    
    <g opacity="0.55">
      <line x1="196.4" y1="437.6" x2="289.2" y2="437.6" stroke="#BFCBDA" stroke-width="4" stroke-linecap="round" />
      <line x1="196.4" y1="437.6" x2="196.4" y2="522.4" stroke="#BFCBDA" stroke-width="4" stroke-linecap="round" />
      <line x1="196.4" y1="522.4" x2="263.6" y2="522.4" stroke="#BFCBDA" stroke-width="4" stroke-linecap="round" />
      <line x1="263.6" y1="522.4" x2="263.6" y2="476" stroke="#BFCBDA" stroke-width="4" stroke-linecap="round" />
      <line x1="263.6" y1="476" x2="310" y2="476" stroke="#BFCBDA" stroke-width="4" stroke-linecap="round" />
      <line x1="310" y1="476" x2="310" y2="437.6" stroke="#BFCBDA" stroke-width="4" stroke-linecap="round" />
      <line x1="236.4" y1="437.6" x2="236.4" y2="480.8" stroke="#BFCBDA" stroke-width="4" stroke-linecap="round" />
      <path d="M 263.6 522.4 A 22.400000000000002 22.400000000000002 0 0 0 286 500" fill="none" stroke="#BFCBDA" stroke-width="3.2" stroke-linecap="round" />
    </g>
  
    <text x="454" y="440" font-family="Inter, Roboto, Arial, sans-serif" font-size="15" font-weight="800" fill="#6B7A8B" text-anchor="end">New project</text>
    <text x="454" y="480" font-family="Inter, Roboto, Arial, sans-serif" font-size="28" font-weight="900" fill="#122033" text-anchor="end">Upload or capture</text>
    <text x="454" y="510" font-family="Inter, Roboto, Arial, sans-serif" font-size="28" font-weight="900" fill="#122033" text-anchor="end">a hand-drawn sketch</text>
    
    <rect x="148" y="620" width="334" height="66" rx="18" fill="#2F6BFF" stroke="#2F6BFF" stroke-width="1.5" />
    
    <text x="315" y="661" font-family="Inter, Roboto, Arial, sans-serif" font-size="18" font-weight="800" fill="#FFFFFF" text-anchor="middle">Upload Sketch</text>
  
    
    <rect x="148" y="702" width="334" height="66" rx="18" fill="#FFFFFF" stroke="#DCE5EE" stroke-width="1.5" />
    
    <text x="315" y="743" font-family="Inter, Roboto, Arial, sans-serif" font-size="18" font-weight="800" fill="#122033" text-anchor="middle">Capture Image</text>
  
    <rect x="148" y="800" width="334" height="136" rx="24" fill="#F4F7FA" stroke="#DCE5EE" stroke-width="1" />
    <text x="168" y="829" font-family="Inter, Roboto, Arial, sans-serif" font-size="14" font-weight="800" fill="#6B7A8B" text-anchor="start">Quick tip</text>
    <text x="168" y="866" font-family="Inter, Roboto, Arial, sans-serif" font-size="22" font-weight="800" fill="#122033" text-anchor="start">Use a flat photo with clear walls</text>
    
    <rect x="168" y="890" width="102" height="34" rx="17" fill="#F4F7FA" stroke="#DCE5EE" stroke-width="1" />
    <text x="219" y="913" font-family="Inter, Roboto, Arial, sans-serif" font-size="14" font-weight="800" fill="#6B7A8B" text-anchor="middle">White paper</text>
  
    
    <rect x="282" y="890" width="94" height="34" rx="17" fill="#F4F7FA" stroke="#DCE5EE" stroke-width="1" />
    <text x="329" y="913" font-family="Inter, Roboto, Arial, sans-serif" font-size="14" font-weight="800" fill="#6B7A8B" text-anchor="middle">Good light</text>
  
    
    <rect x="388" y="890" width="114" height="34" rx="17" fill="#F4F7FA" stroke="#DCE5EE" stroke-width="1" />
    <text x="445" y="913" font-family="Inter, Roboto, Arial, sans-serif" font-size="14" font-weight="800" fill="#6B7A8B" text-anchor="middle">Straight angle</text>
  
  </g>
    </g>
  
    
    <g>
      <rect x="567" y="266" width="390" height="844" rx="44" fill="#B7C6D8" opacity="0.08" />
      <rect x="555" y="240" width="390" height="844" rx="44" fill="#FFFFFF" stroke="#DCE5EE" stroke-width="2" />
      <rect x="678" y="258" width="144" height="24" rx="12" fill="#122033" opacity="0.96" />
      <g>
    
    <text x="583" y="304" font-family="Inter, Roboto, Arial, sans-serif" font-size="27" font-weight="800" fill="#122033" text-anchor="start">Upload sketch</text>
    
  
    <text x="583" y="338" font-family="Inter, Roboto, Arial, sans-serif" font-size="16" font-weight="600" fill="#6B7A8B" text-anchor="start">Choose a source image</text>
    <rect x="583" y="386" width="334" height="310" rx="28" fill="#F4F7FA" stroke="#DCE5EE" stroke-width="1.5" />
    <rect x="601" y="404" width="298" height="274" rx="24" fill="#FFFFFF" stroke="#DCE7FF" stroke-width="2" />
    <line x1="617" y1="420" x2="883" y2="420" stroke="#DCE7FF" stroke-width="2" stroke-linecap="round" stroke-dasharray="8 10" />
    <line x1="617" y1="660" x2="883" y2="660" stroke="#DCE7FF" stroke-width="2" stroke-linecap="round" stroke-dasharray="8 10" />
    <line x1="617" y1="420" x2="617" y2="660" stroke="#DCE7FF" stroke-width="2" stroke-linecap="round" stroke-dasharray="8 10" />
    <line x1="883" y1="420" x2="883" y2="660" stroke="#DCE7FF" stroke-width="2" stroke-linecap="round" stroke-dasharray="8 10" />
    
    <rect x="722" y="486" width="56" height="56" rx="16" fill="#EAF1FF" stroke="#DCE7FF" stroke-width="1" />
    <line x1="750" y1="504" x2="750" y2="523" stroke="#2F6BFF" stroke-width="4" stroke-linecap="round" />
    <line x1="742" y1="512" x2="750" y2="504" stroke="#2F6BFF" stroke-width="4" stroke-linecap="round" />
    <line x1="758" y1="512" x2="750" y2="504" stroke="#2F6BFF" stroke-width="4" stroke-linecap="round" />
    <line x1="740" y1="526" x2="760" y2="526" stroke="#2F6BFF" stroke-width="4" stroke-linecap="round" />
  
    <text x="750" y="578" font-family="Inter, Roboto, Arial, sans-serif" font-size="20" font-weight="800" fill="#122033" text-anchor="middle">Drop image or preview here</text>
    <text x="750" y="610" font-family="Inter, Roboto, Arial, sans-serif" font-size="15" font-weight="600" fill="#6B7A8B" text-anchor="middle">JPEG or PNG</text>
    
    <rect x="583" y="732" width="334" height="66" rx="18" fill="#2F6BFF" stroke="#2F6BFF" stroke-width="1.5" />
    
    <text x="750" y="773" font-family="Inter, Roboto, Arial, sans-serif" font-size="18" font-weight="800" fill="#FFFFFF" text-anchor="middle">Choose from Gallery</text>
  
    
    <rect x="583" y="814" width="334" height="66" rx="18" fill="#FFFFFF" stroke="#DCE5EE" stroke-width="1.5" />
    
    <text x="750" y="855" font-family="Inter, Roboto, Arial, sans-serif" font-size="18" font-weight="800" fill="#122033" text-anchor="middle">Open Camera</text>
  
    
    <rect x="603" y="738" width="56" height="56" rx="16" fill="#EAF1FF" stroke="#DCE7FF" stroke-width="1" />
    <line x1="631" y1="756" x2="631" y2="775" stroke="#2F6BFF" stroke-width="4" stroke-linecap="round" />
    <line x1="623" y1="764" x2="631" y2="756" stroke="#2F6BFF" stroke-width="4" stroke-linecap="round" />
    <line x1="639" y1="764" x2="631" y2="756" stroke="#2F6BFF" stroke-width="4" stroke-linecap="round" />
    <line x1="621" y1="778" x2="641" y2="778" stroke="#2F6BFF" stroke-width="4" stroke-linecap="round" />
  
    
    <rect x="603" y="820" width="56" height="56" rx="16" fill="#F4F7FA" stroke="#DCE5EE" stroke-width="1" />
    <rect x="616" y="838" width="30" height="22" rx="8" fill="#FFFFFF" stroke="#122033" stroke-width="2" />
    <circle cx="631" cy="849" r="7" fill="none" stroke="#122033" stroke-width="2" />
    <rect x="621" y="834" width="10" height="6" rx="3" fill="#122033" stroke="none" stroke-width="1" />
  
  </g>
    </g>
  
    
    <g>
      <rect x="1002" y="266" width="390" height="844" rx="44" fill="#B7C6D8" opacity="0.08" />
      <rect x="990" y="240" width="390" height="844" rx="44" fill="#FFFFFF" stroke="#DCE5EE" stroke-width="2" />
      <rect x="1113" y="258" width="144" height="24" rx="12" fill="#122033" opacity="0.96" />
      <g>
    
    <text x="1018" y="304" font-family="Inter, Roboto, Arial, sans-serif" font-size="27" font-weight="800" fill="#122033" text-anchor="start">Processing</text>
    
  
    <rect x="1018" y="386" width="334" height="628" rx="28" fill="#FFFFFF" stroke="#DCE5EE" stroke-width="1" />
    
    <circle cx="1185" cy="596" r="78" fill="none" stroke="#DCE7FF" stroke-width="10" />
    <circle cx="1185" cy="596" r="52" fill="#EAF1FF" stroke="none" stroke-width="1" />
    <circle cx="1257" cy="596" r="8" fill="#2F6BFF" stroke="none" stroke-width="1" opacity="0.18" /><circle cx="1243.2492235949962" cy="638.3205381650581" r="8" fill="#2F6BFF" stroke="none" stroke-width="1" opacity="0.26" /><circle cx="1207.2492235949962" cy="664.4760691732511" r="8" fill="#2F6BFF" stroke="none" stroke-width="1" opacity="0.33999999999999997" /><circle cx="1162.7507764050038" cy="664.4760691732511" r="8" fill="#2F6BFF" stroke="none" stroke-width="1" opacity="0.42" /><circle cx="1126.7507764050038" cy="638.3205381650581" r="8" fill="#2F6BFF" stroke="none" stroke-width="1" opacity="0.5" /><circle cx="1113" cy="596" r="8" fill="#2F6BFF" stroke="none" stroke-width="1" opacity="0.5800000000000001" /><circle cx="1126.7507764050038" cy="553.6794618349419" r="8" fill="#2F6BFF" stroke="none" stroke-width="1" opacity="0.6599999999999999" /><circle cx="1162.7507764050038" cy="527.5239308267489" r="8" fill="#2F6BFF" stroke="none" stroke-width="1" opacity="0.74" /><circle cx="1207.2492235949962" cy="527.5239308267489" r="8" fill="#2F6BFF" stroke="none" stroke-width="1" opacity="0.8200000000000001" /><circle cx="1243.2492235949962" cy="553.6794618349419" r="8" fill="#2F6BFF" stroke="none" stroke-width="1" opacity="0.8999999999999999" />
    <text x="1185" y="604" font-family="Inter, Roboto, Arial, sans-serif" font-size="34" font-weight="900" fill="#2F6BFF" text-anchor="middle">AI</text>
  
    <text x="1185" y="754" font-family="Inter, Roboto, Arial, sans-serif" font-size="28" font-weight="900" fill="#122033" text-anchor="middle">Processing your floor plan...</text>
    <text x="1185" y="790" font-family="Inter, Roboto, Arial, sans-serif" font-size="17" font-weight="600" fill="#6B7A8B" text-anchor="middle">Detecting walls, doors, and layout</text>
    
    <rect x="1119" y="838" width="132" height="34" rx="17" fill="#EAF1FF" stroke="#DCE7FF" stroke-width="1" />
    <text x="1185" y="861" font-family="Inter, Roboto, Arial, sans-serif" font-size="14" font-weight="800" fill="#2F6BFF" text-anchor="middle">AI scan active</text>
  
    <rect x="1052" y="906" width="266" height="10" rx="5" fill="#DCE7FF" stroke="none" stroke-width="1" />
    <rect x="1052" y="906" width="193.72" height="10" rx="5" fill="#2F6BFF" stroke="none" stroke-width="1" />
  </g>
    </g>
  
    
    <g>
      <rect x="1437" y="266" width="390" height="844" rx="44" fill="#B7C6D8" opacity="0.08" />
      <rect x="1425" y="240" width="390" height="844" rx="44" fill="#FFFFFF" stroke="#DCE5EE" stroke-width="2" />
      <rect x="1548" y="258" width="144" height="24" rx="12" fill="#122033" opacity="0.96" />
      <g>
    
    <text x="1453" y="304" font-family="Inter, Roboto, Arial, sans-serif" font-size="27" font-weight="800" fill="#122033" text-anchor="start">Output</text>
    
  
    
    <rect x="1683" y="294" width="90" height="34" rx="17" fill="#E6F7EF" stroke="none" stroke-width="1" />
    <text x="1728" y="317" font-family="Inter, Roboto, Arial, sans-serif" font-size="14" font-weight="800" fill="#1C9A63" text-anchor="middle">Ready</text>
  
    <rect x="1453" y="386" width="334" height="420" rx="28" fill="#FFFFFF" stroke="#DCE5EE" stroke-width="1" />
    <rect x="1471" y="404" width="298" height="384" rx="24" fill="#F4F7FA" stroke="#DCE5EE" stroke-width="1" />
    
    <g opacity="0.82">
      <line x1="1536.44" y1="491.96" x2="1673.32" y2="491.96" stroke="#122033" stroke-width="5.8999999999999995" stroke-linecap="round" />
      <line x1="1536.44" y1="491.96" x2="1536.44" y2="617.04" stroke="#122033" stroke-width="5.8999999999999995" stroke-linecap="round" />
      <line x1="1536.44" y1="617.04" x2="1635.56" y2="617.04" stroke="#122033" stroke-width="5.8999999999999995" stroke-linecap="round" />
      <line x1="1635.56" y1="617.04" x2="1635.56" y2="548.6" stroke="#122033" stroke-width="5.8999999999999995" stroke-linecap="round" />
      <line x1="1635.56" y1="548.6" x2="1704" y2="548.6" stroke="#122033" stroke-width="5.8999999999999995" stroke-linecap="round" />
      <line x1="1704" y1="548.6" x2="1704" y2="491.96" stroke="#122033" stroke-width="5.8999999999999995" stroke-linecap="round" />
      <line x1="1595.44" y1="491.96" x2="1595.44" y2="555.68" stroke="#122033" stroke-width="5.8999999999999995" stroke-linecap="round" />
      <path d="M 1635.56 617.04 A 33.04 33.04 0 0 0 1668.6 584" fill="none" stroke="#122033" stroke-width="4.72" stroke-linecap="round" />
    </g>
  
    
    <rect x="1645" y="422" width="110" height="34" rx="17" fill="#F4F7FA" stroke="#DCE5EE" stroke-width="1" />
    <text x="1700" y="445" font-family="Inter, Roboto, Arial, sans-serif" font-size="14" font-weight="800" fill="#6B7A8B" text-anchor="middle">Zoom 125%</text>
  
    
    <rect x="1453" y="834" width="114" height="58" rx="18" fill="#2F6BFF" stroke="#2F6BFF" stroke-width="1.5" />
    
    <text x="1510" y="871" font-family="Inter, Roboto, Arial, sans-serif" font-size="18" font-weight="800" fill="#FFFFFF" text-anchor="middle">Download</text>
  
    
    <rect x="1581" y="834" width="92" height="58" rx="18" fill="#FFFFFF" stroke="#DCE5EE" stroke-width="1.5" />
    
    <text x="1627" y="871" font-family="Inter, Roboto, Arial, sans-serif" font-size="18" font-weight="800" fill="#122033" text-anchor="middle">Save</text>
  
    
    <rect x="1687" y="834" width="144" height="58" rx="18" fill="#FFFFFF" stroke="#DCE5EE" stroke-width="1.5" />
    
    <text x="1759" y="871" font-family="Inter, Roboto, Arial, sans-serif" font-size="18" font-weight="800" fill="#122033" text-anchor="middle">Try Another</text>
  
    <text x="1453" y="940" font-family="Inter, Roboto, Arial, sans-serif" font-size="19" font-weight="800" fill="#122033" text-anchor="start">Digital floor plan generated</text>
    <text x="1453" y="968" font-family="Inter, Roboto, Arial, sans-serif" font-size="15" font-weight="600" fill="#6B7A8B" text-anchor="start">Walls, openings, and layout are ready.</text>
  </g>
    </g>
  
    
    <g>
      <rect x="1872" y="266" width="390" height="844" rx="44" fill="#B7C6D8" opacity="0.08" />
      <rect x="1860" y="240" width="390" height="844" rx="44" fill="#FFFFFF" stroke="#DCE5EE" stroke-width="2" />
      <rect x="1983" y="258" width="144" height="24" rx="12" fill="#122033" opacity="0.96" />
      <g>
    
    <text x="1888" y="304" font-family="Inter, Roboto, Arial, sans-serif" font-size="27" font-weight="800" fill="#122033" text-anchor="start">History</text>
    
  
    <text x="1888" y="338" font-family="Inter, Roboto, Arial, sans-serif" font-size="16" font-weight="600" fill="#6B7A8B" text-anchor="start">Previous conversions</text>
    
    <rect x="1888" y="382" width="64" height="34" rx="17" fill="#EAF1FF" stroke="#DCE7FF" stroke-width="1" />
    <text x="1920" y="405" font-family="Inter, Roboto, Arial, sans-serif" font-size="14" font-weight="800" fill="#2F6BFF" text-anchor="middle">All</text>
  
    
    <rect x="1964" y="382" width="78" height="34" rx="17" fill="#F4F7FA" stroke="#DCE5EE" stroke-width="1" />
    <text x="2003" y="405" font-family="Inter, Roboto, Arial, sans-serif" font-size="14" font-weight="800" fill="#6B7A8B" text-anchor="middle">Saved</text>
  
    
    <rect x="2054" y="382" width="78" height="34" rx="17" fill="#F4F7FA" stroke="#DCE5EE" stroke-width="1" />
    <text x="2093" y="405" font-family="Inter, Roboto, Arial, sans-serif" font-size="14" font-weight="800" fill="#6B7A8B" text-anchor="middle">Issues</text>
  
    
    <rect x="1888" y="436" width="334" height="104" rx="22" fill="#FFFFFF" stroke="#DCE5EE" stroke-width="1" />
    <rect x="1906" y="452" width="72" height="72" rx="18" fill="#F4F7FA" stroke="#DCE5EE" stroke-width="1" />
    
    <g opacity="0.9">
      <line x1="1918.72" y1="469.48" x2="1958.16" y2="469.48" stroke="#BFCBDA" stroke-width="1.7000000000000002" stroke-linecap="round" />
      <line x1="1918.72" y1="469.48" x2="1918.72" y2="505.52" stroke="#BFCBDA" stroke-width="1.7000000000000002" stroke-linecap="round" />
      <line x1="1918.72" y1="505.52" x2="1947.28" y2="505.52" stroke="#BFCBDA" stroke-width="1.7000000000000002" stroke-linecap="round" />
      <line x1="1947.28" y1="505.52" x2="1947.28" y2="485.8" stroke="#BFCBDA" stroke-width="1.7000000000000002" stroke-linecap="round" />
      <line x1="1947.28" y1="485.8" x2="1967" y2="485.8" stroke="#BFCBDA" stroke-width="1.7000000000000002" stroke-linecap="round" />
      <line x1="1967" y1="485.8" x2="1967" y2="469.48" stroke="#BFCBDA" stroke-width="1.7000000000000002" stroke-linecap="round" />
      <line x1="1935.72" y1="469.48" x2="1935.72" y2="487.84000000000003" stroke="#BFCBDA" stroke-width="1.7000000000000002" stroke-linecap="round" />
      <path d="M 1947.28 505.52 A 9.520000000000001 9.520000000000001 0 0 0 1956.8 496" fill="none" stroke="#BFCBDA" stroke-width="1.36" stroke-linecap="round" />
    </g>
  
    <text x="1996" y="475" font-family="Inter, Roboto, Arial, sans-serif" font-size="20" font-weight="800" fill="#122033" text-anchor="start">Site plan A</text>
    <text x="1996" y="502" font-family="Inter, Roboto, Arial, sans-serif" font-size="15" font-weight="600" fill="#6B7A8B" text-anchor="start">Digital floor plan</text>
    <rect x="2104" y="454" width="92" height="30" rx="15" fill="#E6F7EF" stroke="none" stroke-width="1" />
    <text x="2150" y="475" font-family="Inter, Roboto, Arial, sans-serif" font-size="13" font-weight="800" fill="#1C9A63" text-anchor="middle">Ready</text>
    <text x="1996" y="524" font-family="Inter, Roboto, Arial, sans-serif" font-size="14" font-weight="600" fill="#8D9AAA" text-anchor="start">April 2026</text>
  
    
    <rect x="1888" y="556" width="334" height="104" rx="22" fill="#FFFFFF" stroke="#DCE5EE" stroke-width="1" />
    <rect x="1906" y="572" width="72" height="72" rx="18" fill="#F4F7FA" stroke="#DCE5EE" stroke-width="1" />
    
    <g opacity="0.9">
      <line x1="1918.72" y1="589.48" x2="1958.16" y2="589.48" stroke="#BFCBDA" stroke-width="1.7000000000000002" stroke-linecap="round" />
      <line x1="1918.72" y1="589.48" x2="1918.72" y2="625.52" stroke="#BFCBDA" stroke-width="1.7000000000000002" stroke-linecap="round" />
      <line x1="1918.72" y1="625.52" x2="1947.28" y2="625.52" stroke="#BFCBDA" stroke-width="1.7000000000000002" stroke-linecap="round" />
      <line x1="1947.28" y1="625.52" x2="1947.28" y2="605.8" stroke="#BFCBDA" stroke-width="1.7000000000000002" stroke-linecap="round" />
      <line x1="1947.28" y1="605.8" x2="1967" y2="605.8" stroke="#BFCBDA" stroke-width="1.7000000000000002" stroke-linecap="round" />
      <line x1="1967" y1="605.8" x2="1967" y2="589.48" stroke="#BFCBDA" stroke-width="1.7000000000000002" stroke-linecap="round" />
      <line x1="1935.72" y1="589.48" x2="1935.72" y2="607.84" stroke="#BFCBDA" stroke-width="1.7000000000000002" stroke-linecap="round" />
      <path d="M 1947.28 625.52 A 9.520000000000001 9.520000000000001 0 0 0 1956.8 616" fill="none" stroke="#BFCBDA" stroke-width="1.36" stroke-linecap="round" />
    </g>
  
    <text x="1996" y="595" font-family="Inter, Roboto, Arial, sans-serif" font-size="20" font-weight="800" fill="#122033" text-anchor="start">Basement sketch</text>
    <text x="1996" y="622" font-family="Inter, Roboto, Arial, sans-serif" font-size="15" font-weight="600" fill="#6B7A8B" text-anchor="start">Digital floor plan</text>
    <rect x="2104" y="574" width="92" height="30" rx="15" fill="#EAF1FF" stroke="none" stroke-width="1" />
    <text x="2150" y="595" font-family="Inter, Roboto, Arial, sans-serif" font-size="13" font-weight="800" fill="#2F6BFF" text-anchor="middle">Saved</text>
    <text x="1996" y="644" font-family="Inter, Roboto, Arial, sans-serif" font-size="14" font-weight="600" fill="#8D9AAA" text-anchor="start">April 2026</text>
  
    
    <rect x="1888" y="676" width="334" height="104" rx="22" fill="#FFFFFF" stroke="#DCE5EE" stroke-width="1" />
    <rect x="1906" y="692" width="72" height="72" rx="18" fill="#F4F7FA" stroke="#DCE5EE" stroke-width="1" />
    
    <g opacity="0.9">
      <line x1="1918.72" y1="709.48" x2="1958.16" y2="709.48" stroke="#BFCBDA" stroke-width="1.7000000000000002" stroke-linecap="round" />
      <line x1="1918.72" y1="709.48" x2="1918.72" y2="745.52" stroke="#BFCBDA" stroke-width="1.7000000000000002" stroke-linecap="round" />
      <line x1="1918.72" y1="745.52" x2="1947.28" y2="745.52" stroke="#BFCBDA" stroke-width="1.7000000000000002" stroke-linecap="round" />
      <line x1="1947.28" y1="745.52" x2="1947.28" y2="725.8" stroke="#BFCBDA" stroke-width="1.7000000000000002" stroke-linecap="round" />
      <line x1="1947.28" y1="725.8" x2="1967" y2="725.8" stroke="#BFCBDA" stroke-width="1.7000000000000002" stroke-linecap="round" />
      <line x1="1967" y1="725.8" x2="1967" y2="709.48" stroke="#BFCBDA" stroke-width="1.7000000000000002" stroke-linecap="round" />
      <line x1="1935.72" y1="709.48" x2="1935.72" y2="727.84" stroke="#BFCBDA" stroke-width="1.7000000000000002" stroke-linecap="round" />
      <path d="M 1947.28 745.52 A 9.520000000000001 9.520000000000001 0 0 0 1956.8 736" fill="none" stroke="#BFCBDA" stroke-width="1.36" stroke-linecap="round" />
    </g>
  
    <text x="1996" y="715" font-family="Inter, Roboto, Arial, sans-serif" font-size="20" font-weight="800" fill="#122033" text-anchor="start">Office layout</text>
    <text x="1996" y="742" font-family="Inter, Roboto, Arial, sans-serif" font-size="15" font-weight="600" fill="#6B7A8B" text-anchor="start">Digital floor plan</text>
    <rect x="2104" y="694" width="92" height="30" rx="15" fill="#FFF0EE" stroke="none" stroke-width="1" />
    <text x="2150" y="715" font-family="Inter, Roboto, Arial, sans-serif" font-size="13" font-weight="800" fill="#D86A5C" text-anchor="middle">Issue</text>
    <text x="1996" y="764" font-family="Inter, Roboto, Arial, sans-serif" font-size="14" font-weight="600" fill="#8D9AAA" text-anchor="start">April 2026</text>
  
    
    <rect x="1888" y="796" width="334" height="104" rx="22" fill="#FFFFFF" stroke="#DCE5EE" stroke-width="1" />
    <rect x="1906" y="812" width="72" height="72" rx="18" fill="#F4F7FA" stroke="#DCE5EE" stroke-width="1" />
    
    <g opacity="0.9">
      <line x1="1918.72" y1="829.48" x2="1958.16" y2="829.48" stroke="#BFCBDA" stroke-width="1.7000000000000002" stroke-linecap="round" />
      <line x1="1918.72" y1="829.48" x2="1918.72" y2="865.52" stroke="#BFCBDA" stroke-width="1.7000000000000002" stroke-linecap="round" />
      <line x1="1918.72" y1="865.52" x2="1947.28" y2="865.52" stroke="#BFCBDA" stroke-width="1.7000000000000002" stroke-linecap="round" />
      <line x1="1947.28" y1="865.52" x2="1947.28" y2="845.8" stroke="#BFCBDA" stroke-width="1.7000000000000002" stroke-linecap="round" />
      <line x1="1947.28" y1="845.8" x2="1967" y2="845.8" stroke="#BFCBDA" stroke-width="1.7000000000000002" stroke-linecap="round" />
      <line x1="1967" y1="845.8" x2="1967" y2="829.48" stroke="#BFCBDA" stroke-width="1.7000000000000002" stroke-linecap="round" />
      <line x1="1935.72" y1="829.48" x2="1935.72" y2="847.84" stroke="#BFCBDA" stroke-width="1.7000000000000002" stroke-linecap="round" />
      <path d="M 1947.28 865.52 A 9.520000000000001 9.520000000000001 0 0 0 1956.8 856" fill="none" stroke="#BFCBDA" stroke-width="1.36" stroke-linecap="round" />
    </g>
  
    <text x="1996" y="835" font-family="Inter, Roboto, Arial, sans-serif" font-size="20" font-weight="800" fill="#122033" text-anchor="start">Residence plan</text>
    <text x="1996" y="862" font-family="Inter, Roboto, Arial, sans-serif" font-size="15" font-weight="600" fill="#6B7A8B" text-anchor="start">Digital floor plan</text>
    <rect x="2104" y="814" width="92" height="30" rx="15" fill="#E6F7EF" stroke="none" stroke-width="1" />
    <text x="2150" y="835" font-family="Inter, Roboto, Arial, sans-serif" font-size="13" font-weight="800" fill="#1C9A63" text-anchor="middle">Ready</text>
    <text x="1996" y="884" font-family="Inter, Roboto, Arial, sans-serif" font-size="14" font-weight="600" fill="#8D9AAA" text-anchor="start">April 2026</text>
  
  </g>
    </g>
  
  </g>

  <text x="120" y="1168" font-family="Inter, Roboto, Arial, sans-serif" font-size="18" font-weight="800" fill="#6B7A8B" text-anchor="start">Home</text>
  <text x="555" y="1168" font-family="Inter, Roboto, Arial, sans-serif" font-size="18" font-weight="800" fill="#6B7A8B" text-anchor="start">Upload / Capture</text>
  <text x="990" y="1168" font-family="Inter, Roboto, Arial, sans-serif" font-size="18" font-weight="800" fill="#6B7A8B" text-anchor="start">Processing</text>
  <text x="1425" y="1168" font-family="Inter, Roboto, Arial, sans-serif" font-size="18" font-weight="800" fill="#6B7A8B" text-anchor="start">Output</text>
  <text x="1860" y="1168" font-family="Inter, Roboto, Arial, sans-serif" font-size="18" font-weight="800" fill="#6B7A8B" text-anchor="start">History</text>
</svg>
